Coordinates
version=1
nRows=8
nColumns=63
inDegrees=yes

Units are S.I. units (second, meters, Newtons, ...)
If the header above contains a line with 'inDegrees', this indicates whether rotational values are in degrees (yes) or radians (no).

endheader
time	pelvis_tilt	pelvis_list	pelvis_rotation	pelvis_tx	pelvis_ty	pelvis_tz	hip_flexion_r	hip_adduction_r	hip_rotation_r	knee_angle_r	knee_angle_r_beta	ankle_angle_r	subtalar_angle_r	mtp_angle_r	hip_flexion_l	hip_adduction_l	hip_rotation_l	knee_angle_l	knee_angle_l_beta	ankle_angle_l	subtalar_angle_l	mtp_angle_l	L5_S1_Flex_Ext	L5_S1_Lat_Bending	L5_S1_axial_rotation	L4_L5_Flex_Ext	L4_L5_Lat_Bending	L4_L5_axial_rotation	L3_L4_Flex_Ext	L3_L4_Lat_Bending	L3_L4_axial_rotation	L2_L3_Flex_Ext	L2_L3_Lat_Bending	L2_L3_axial_rotation	L1_L2_Flex_Ext	L1_L2_Lat_Bending	L1_L2_axial_rotation	L1_T12_Flex_Ext	L1_T12_Lat_Bending	L1_T12_axial_rotation	Abs_r3	Abs_r2	Abs_r1	Abs_t1	Abs_t2	neck_flexion	neck_bending	neck_rotation	arm_flex_r	arm_add_r	arm_rot_r	elbow_flex_r	pro_sup_r	wrist_flex_r	wrist_dev_r	arm_flex_l	arm_add_l	arm_rot_l	elbow_flex_l	pro_sup_l	wrist_flex_l	wrist_dev_l
      5.04761905	     -2.78372037	      1.66597271	     97.23200785	      0.20340872	      1.11490330	      0.46874894	     -3.50580556	     -0.96722596	      4.93292118	      0.65566597	      0.01144353	     18.59231998	      5.18931183	      0.00000000	     -1.87289946	      0.21991513	     -3.46643545	      4.30876824	      0.07520219	     12.91462310	      4.11585994	      0.00000000	     -0.00500463	     -0.19322625	     -1.72433157	     -0.00929410	     -0.25699092	     -1.83210229	     -0.00822211	     -0.46981031	     -1.83210229	     -0.00571979	     -0.46981031	     -1.50879012	     -0.00464730	     -0.39402698	     -1.40101940	     -0.00285965	     -0.29930747	     -1.29324868	     -0.03574759	     -2.18581403	     -9.59021488	      0.00000000	      0.00000000	      4.68804600	      8.91122014	    -10.43396648	     28.65681493	     18.52046249	    236.00127907	      0.11505918	     88.10336279	    -68.80302715	      8.46086488	     26.36175394	      4.95202978	    197.35724945	      0.21915527	      5.10478044	    -19.38395205	    -23.20872059
      5.07142857	     -2.42546829	      1.75558050	     98.07916159	      0.19992047	      1.11456197	      0.46849885	     -3.71187344	     -0.66135774	      3.67750448	      0.62284776	      0.01087074	     18.72923527	      5.84183210	      0.00000000	     -1.84150862	     -0.05405615	     -2.36908121	      4.40976575	      0.07696493	     13.34063786	      3.80131965	      0.00000000	     -0.01139317	     -0.11897097	     -1.84284197	     -0.02115825	     -0.15823139	     -1.95801960	     -0.01871784	     -0.28926602	     -1.95801960	     -0.01302125	     -0.28926602	     -1.61248673	     -0.01057970	     -0.24260561	     -1.49730910	     -0.00651006	     -0.18428604	     -1.38213148	     -0.08138026	     -1.34582345	    -10.24933421	      0.00000000	      0.00000000	      4.73893404	      8.11069905	    -10.33920934	     28.71967176	     17.23419877	    235.73830223	      0.11326099	     88.54718851	    -67.29651711	     -5.49582273	     26.15097103	      5.55179586	    197.31969466	      0.21517352	      4.86634305	    -22.05063004	    -23.52536331
      5.09523810	     -2.46035688	      1.74731383	     99.10050182	      0.19785303	      1.11454190	      0.46841866	     -3.86846667	     -0.66786003	      2.69201290	      0.58677095	      0.01024109	     18.79079267	      5.79548000	      0.00000000	     -1.70178762	     -0.03603410	     -1.93160432	      4.56395655	      0.07965607	     13.65997828	      4.43301834	      0.00000000	     -0.01751572	     -0.12126973	     -2.02284093	     -0.03252844	     -0.16128874	     -2.14926849	     -0.02877657	     -0.29485521	     -2.14926849	     -0.02001871	     -0.29485521	     -1.76998581	     -0.01626510	     -0.24729323	     -1.64355825	     -0.01000848	     -0.18784681	     -1.51713070	     -0.12511302	     -1.37182740	    -11.25043439	      0.00000000	      0.00000000	      4.56476245	      8.07485327	     -9.94233464	     27.29792901	     16.45138557	    247.02177465	      0.11629281	     89.05186061	    -59.05082165	      0.42305395	     25.67628946	      5.50456661	    196.73802476	      0.21863180	      4.29539924	    -22.61113715	    -23.50324451
      5.11904762	     -2.77695220	      1.65676736	    100.21556764	      0.19706556	      1.11497520	      0.46811081	     -4.00016933	     -0.89284532	      1.66172978	      0.54740693	      0.00955405	     18.76146652	      5.61301529	      0.00000000	     -1.51586092	      0.18448661	     -1.99301907	      4.73017632	      0.08255715	     13.84575812	      5.77766234	      0.00000000	     -0.02071408	     -0.18581441	     -2.23581244	     -0.03846813	     -0.24713316	     -2.37555072	     -0.03403117	     -0.45178915	     -2.37555072	     -0.02367413	     -0.45178915	     -1.95633588	     -0.01923510	     -0.37891274	     -1.81659761	     -0.01183603	     -0.28782651	     -1.67685933	     -0.14795863	     -2.10196972	    -12.43491804	      0.00000000	      0.00000000	      4.01472831	      8.65159325	     -9.68503469	     24.80218196	     16.08638868	    265.00934236	      0.13441686	     89.31389057	    -42.60465611	     17.77903787	     24.98160479	      5.03161774	    196.43367081	      0.22900558	      3.86896471	    -22.65356361	    -22.98522819
      5.14285714	     -2.88587710	      1.54778169	    101.34983648	      0.19547158	      1.11472573	      0.46715082	     -4.12914287	     -0.93205890	      0.73801500	      0.49567351	      0.00865113	     18.80662355	      5.26828786	      0.00000000	     -1.34836795	      0.25242079	     -1.63188400	      4.81120504	      0.08397137	     14.23229827	      6.61930121	      0.00000000	     -0.02001671	     -0.20955374	     -2.40238921	     -0.03717302	     -0.27870647	     -2.55253854	     -0.03288545	     -0.50950895	     -2.55253854	     -0.02287709	     -0.50950895	     -2.10209056	     -0.01858751	     -0.42732198	     -1.95194124	     -0.01143755	     -0.32459874	     -1.80179191	     -0.14297733	     -2.37051377	    -13.36136809	      0.00000000	      0.00000000	      3.58023998	      8.84570507	     -9.39860394	     23.20066605	     15.72871137	    273.21803835	      0.15096907	     89.34426137	    -31.32574729	     26.60443074	     24.31204159	      4.93623868	    197.22140789	      0.24473122	      3.73531045	    -23.31804743	    -21.39325488
      5.16666667	     -2.91613514	      1.52153926	    102.26010019	      0.19381725	      1.11438574	      0.46597734	     -4.31978551	     -0.91150506	      0.17748996	      0.44814369	      0.00782158	     18.87425293	      4.82271356	      0.00000000	     -1.34420074	      0.25894274	     -1.06596835	      4.73097809	      0.08257114	     14.60853260	      7.09076429	      0.00000000	     -0.01845182	     -0.20887499	     -2.53392641	     -0.03426688	     -0.27780373	     -2.69229681	     -0.03031450	     -0.50785865	     -2.69229681	     -0.02108859	     -0.50785865	     -2.21718561	     -0.01713436	     -0.42593788	     -2.05881520	     -0.01054337	     -0.32354736	     -1.90044480	     -0.13179953	     -2.36283564	    -14.09293849	      0.00000000	      0.00000000	      2.90942341	      8.61067866	     -8.74613606	     22.83973367	     15.71541716	    272.57184165	      0.15250278	     89.31081005	    -31.42673346	     28.16201637	     23.75135463	      4.94832779	    197.24577995	      0.26302880	      3.61669046	    -23.06856498	    -19.81635984
      5.19047619	     -2.73904403	      1.38615729	    103.09056483	      0.19200807	      1.11386357	      0.46546989	     -4.28937622	     -0.71973409	     -0.38973730	      0.41915112	      0.00731557	     18.81873187	      4.42123633	      0.00000000	     -1.10741954	      0.11203432	     -0.51638828	      4.73896162	      0.08271048	     15.15515486	      7.64711043	      0.00000000	     -0.00357986	     -0.18022552	     -2.63020662	     -0.00664816	     -0.23969994	     -2.79459454	     -0.00588136	     -0.43820033	     -2.79459454	     -0.00409143	     -0.43820033	     -2.30143080	     -0.00332426	     -0.36751588	     -2.13704288	     -0.00204553	     -0.27916933	     -1.97265497	     -0.02557060	     -2.03874714	    -14.62842018	      0.00000000	      0.00000000	      2.54465947	      8.36534042	     -8.05942056	     22.54958844	     15.54312906	    271.11189184	      0.15349566	     89.20175459	    -31.77395232	     30.17531038	     23.42509805	      5.05450235	    197.61226240	      0.28749356	      3.62770303	    -22.27909433	    -18.88751935
      5.21428571	     -2.63899069	      1.24289526	    103.50600994	      0.19083891	      1.11346888	      0.46589314	     -4.15711088	     -0.65008242	     -0.81231446	      0.41100557	      0.00717340	     18.73035473	      4.31647901	      0.00000000	     -0.78511823	      0.05035267	     -0.83642719	      4.92977229	      0.08604076	     15.55821277	      8.84285883	      0.00000000	     -0.00181514	     -0.16585552	     -2.59655289	     -0.00337090	     -0.22058785	     -2.75883744	     -0.00298210	     -0.40326112	     -2.75883744	     -0.00207453	     -0.40326112	     -2.27198378	     -0.00168554	     -0.33821259	     -2.10969922	     -0.00103717	     -0.25691021	     -1.94741467	     -0.01296539	     -1.87619087	    -14.44124820	      0.00000000	      0.00000000	      2.52139218	      8.33025387	     -8.38937490	     22.49830418	     15.54504358	    266.86603030	      0.14927676	     89.10237852	    -34.15043850	     30.26159722	     23.46992827	      5.20916684	    198.65625295	      0.28444277	      3.35917845	    -18.89191268	    -18.58638349
